<svg width="20" height="20" viewBox="0 0 20 20" fill="none" xmlns="http://www.w3.org/2000/svg">
<path d="M7.28571 9.57141C7.28571 11.0476 8.5238 12.2857 9.99999 12.2857C11.4762 12.2857 12.7143 11.0476 12.7143 9.57141C12.7143 8.09522 11.4762 6.85712 9.99999 6.85712C8.5238 6.85712 7.28571 8.09522 7.28571 9.57141ZM11.1429 15.4285C14.3333 14.7143 19.2857 10.4762 19.2857 10.4762C19.2857 10.4762 15.619 4.76188 10.7143 4.14283C10.4286 4.09521 9.47618 4.09521 9.28571 4.09521C4.5238 4.57141 0.714279 10.619 0.714279 10.619C0.714279 10.619 4.85714 14.7143 8.80952 15.3333C9.23809 15.5238 10.6667 15.5238 11.1429 15.4285V15.4285ZM5.28571 9.85712C5.28571 7.38093 7.38095 5.38093 9.99999 5.38093C12.619 5.38093 14.7143 7.38093 14.7143 9.85712C14.7143 12.3333 12.619 14.2857 9.99999 14.2857C7.38095 14.2857 5.28571 12.2857 5.28571 9.85712Z" fill="#FF9901"/>
</svg>
