<svg width="9" height="7" viewBox="0 0 9 7" fill="none" xmlns="http://www.w3.org/2000/svg">
<path d="M9 4.77737C9 5.5438 8.84426 6.10584 8.53279 6.4635C8.22131 6.82117 7.69672 7 6.95902 7C6.17213 7 5.63115 6.82117 5.33607 6.4635C5.05738 6.10584 4.91803 5.5438 4.91803 4.77737V4.57299C4.91803 3.70438 4.94262 2.98053 4.9918 2.40146C5.04098 1.80535 5.18033 1.33698 5.40984 0.996349C5.63934 0.638686 5.98361 0.383212 6.44262 0.229927C6.91803 0.0766421 7.57377 0 8.40984 0V1.22628H8.21312C7.52459 1.22628 7.02459 1.31995 6.71312 1.5073C6.41803 1.69465 6.2623 2.07786 6.2459 2.65693C6.44262 2.60584 6.68033 2.58029 6.95902 2.58029C7.69672 2.58029 8.22131 2.75912 8.53279 3.11679C8.84426 3.45742 9 4.01095 9 4.77737ZM4.08197 4.77737C4.08197 5.5438 3.92623 6.10584 3.61475 6.4635C3.30328 6.82117 2.77869 7 2.04098 7C1.2541 7 0.713115 6.82117 0.418033 6.4635C0.139344 6.10584 0 5.5438 0 4.77737C0 3.85766 0.0245902 3.09976 0.0737706 2.50365C0.122951 1.89051 0.254098 1.39659 0.467213 1.0219C0.696721 0.647202 1.04098 0.383212 1.5 0.229927C1.97541 0.0766421 2.63934 0 3.4918 0V1.22628H3.29508C2.60656 1.22628 2.10656 1.31995 1.79508 1.5073C1.5 1.69465 1.34426 2.07786 1.32787 2.65693C1.52459 2.60584 1.7623 2.58029 2.04098 2.58029C2.77869 2.58029 3.30328 2.75912 3.61475 3.11679C3.92623 3.45742 4.08197 4.01095 4.08197 4.77737Z" fill="white"/>
</svg>
